<?xml version="1.0" encoding="UTF-8" standalone="no"?>
<svg
   xmlns:dc="http://purl.org/dc/elements/1.1/"
   xmlns:cc="http://creativecommons.org/ns#"
   xmlns:rdf="http://www.w3.org/1999/02/22-rdf-syntax-ns#"
   xmlns:svg="http://www.w3.org/2000/svg"
   xmlns="http://www.w3.org/2000/svg"
   width="100%"
   height="100%"
   viewBox="0 0 64 64"
   version="1.1"
   xml:space="preserve"
   style="fill-rule:evenodd;clip-rule:evenodd;stroke-linecap:round;stroke-linejoin:round;stroke-miterlimit:2;"
   id="svg23">
  <metadata
   id="metadata29">
    <rdf:RDF>
      <cc:Work
   rdf:about="">
        <dc:format>image/svg+xml</dc:format>

        <dc:type
   rdf:resource="http://purl.org/dc/dcmitype/StillImage" />

      </cc:Work>

    </rdf:RDF>

  </metadata>

  <defs
   id="defs27" />

  
  <path
   d="M28.442,17.169c1.138,-0.302 2.331,-0.463 3.558,-0.463"
   style="fill:none;stroke:#222a33;stroke-width:1.5px;"
   id="path3" />

  <path
   d="M46.022,30.729c0,4.856 -2.474,9.14 -6.23,11.657c-1.472,0.987 -2.355,2.642 -2.355,4.414c-0.044,0.001 -0.044,0.002 -0.044,0.003c0,0.878 -0.399,1.708 -1.084,2.256c-0.685,0.548 -1.582,0.755 -2.438,0.563c-1.923,-0.433 -4.208,-0.947 -5.695,-1.282c-0.917,-0.206 -1.569,-1.021 -1.569,-1.961c0,-0.001 0,-0.002 0,-0.003c-0.001,-1.561 -0.799,-3.012 -2.117,-3.848c-3.922,-2.461 -6.512,-6.83 -6.512,-11.799c0,-0.761 0.059,-1.507 0.177,-2.235"
   style="fill:none;stroke:#222a33;stroke-width:1.5px;"
   id="path5" />

  <path
   d="M27.146,51.223l7.551,2.157"
   style="fill:none;stroke:#222a33;stroke-width:1.5px;"
   id="path7" />

  <path
   d="M28.764,54.921l3.775,1.079"
   style="fill:none;stroke:#222a33;stroke-width:1.5px;"
   id="path9" />

  <path
   d="M32,44.135l0,-6.299c0,-4.981 1.796,-9.796 5.059,-13.561c1.633,-1.884 3.031,-3.497 3.031,-3.497"
   style="fill:none;stroke:#222a33;stroke-width:1.5px;"
   id="path11" />

  <path
   d="M32,37.663c0,0 -0.35,-3.154 -0.652,-5.867c-0.275,-2.48 -1.42,-4.783 -3.231,-6.5c-3.508,-3.326 -9.061,-8.59 -9.061,-8.59"
   style="fill:none;stroke:#222a33;stroke-width:1.5px;"
   id="path13" />

  <path
   d="M28.646,25.798c0,0 1.632,-5.888 -1.5,-10.787c-2.393,-3.744 -11.839,-5.86 -16.16,-6.65c-0.577,-0.103 -1.17,0.05 -1.625,0.419c-0.456,0.369 -0.728,0.918 -0.746,1.504c-0.087,3.287 0.456,9.498 5.048,14.435c6.564,7.057 12.404,4.315 12.404,4.315"
   style="fill:none;stroke:#222a33;stroke-width:1.5px;"
   id="path15" />

  <path
   d="M35.272,26.337c0,0 -2.048,-4.365 -0.259,-8.59c1.302,-3.075 7.773,-5.846 11.201,-7.127c0.563,-0.21 1.19,-0.157 1.711,0.143c0.52,0.3 0.88,0.817 0.98,1.409c0.442,2.66 0.602,7.201 -2.119,11.346c-4.174,6.358 -9.08,4.996 -9.08,4.996"
   style="fill:none;stroke:#222a33;stroke-width:1.5px;"
   id="path17" />

  <path
   d="M42.463,32c0,0 -0.076,2.627 -2.373,6"
   style="fill:none;stroke:#222a33;stroke-width:1.5px;"
   id="path19" />

  <path
   d="M24.64,22l-6.177,0"
   style="fill:none;stroke:#222a33;stroke-width:1.5px;"
   id="path21" />

</svg>
